<?xml version="1.0" encoding="UTF-8" standalone="no"?>
<!DOCTYPE svg PUBLIC "-//W3C//DTD SVG 1.1//EN"
 "http://www.w3.org/Graphics/SVG/1.1/DTD/svg11.dtd">
<!-- Generated by graphviz version 2.47.0 (20210316.0004)
 -->
<!-- Title: dependencies Pages: 1 -->
<svg width="812pt" height="284pt"
 viewBox="0.00 0.00 812.00 284.00" xmlns="http://www.w3.org/2000/svg" xmlns:xlink="http://www.w3.org/1999/xlink">
<g id="graph0" class="graph" transform="scale(1 1) rotate(0) translate(4 280)">
<title>dependencies</title>
<polygon fill="white" stroke="transparent" points="-4,4 -4,-280 808,-280 808,4 -4,4"/>
<text text-anchor="start" x="381.01" y="-42.4" font-family="Times-12" font-weight="bold" font-size="14.00">Legend</text>
<polygon fill="#ffffb3" stroke="transparent" points="168,-10 168,-30 188,-30 188,-10 168,-10"/>
<text text-anchor="start" x="191.63" y="-15.4" font-family="Times-12" font-size="14.00"> &#160;Declarations</text>
<polygon fill="#8dd3c7" stroke="transparent" points="281,-10 281,-30 301,-30 301,-10 281,-10"/>
<text text-anchor="start" x="304.73" y="-15.4" font-family="Times-12" font-size="14.00"> &#160;Module</text>
<polygon fill="#80b1d3" stroke="transparent" points="367,-10 367,-30 387,-30 387,-10 367,-10"/>
<text text-anchor="start" x="390.78" y="-15.4" font-family="Times-12" font-size="14.00"> &#160;Bootstrap</text>
<polygon fill="#fdb462" stroke="transparent" points="464,-10 464,-30 484,-30 484,-10 464,-10"/>
<text text-anchor="start" x="487.67" y="-15.4" font-family="Times-12" font-size="14.00"> &#160;Providers</text>
<polygon fill="#fb8072" stroke="transparent" points="560,-10 560,-30 580,-30 580,-10 560,-10"/>
<text text-anchor="start" x="583.73" y="-15.4" font-family="Times-12" font-size="14.00"> &#160;Exports</text>
<g id="clust1" class="cluster">
<title>cluster_UsersModule</title>
<polygon fill="none" stroke="black" stroke-dasharray="1,5" points="8,-70 8,-268 796,-268 796,-70 8,-70"/>
</g>
<g id="clust6" class="cluster">
<title>cluster_UsersModule_providers</title>
<polygon fill="none" stroke="black" points="16,-78 16,-130 788,-130 788,-78 16,-78"/>
</g>
<g id="clust4" class="cluster">
<title>cluster_UsersModule_exports</title>
<polygon fill="none" stroke="black" points="309,-208 309,-260 419,-260 419,-208 309,-208"/>
</g>
<!-- UsersService  -->
<g id="node1" class="node">
<title>UsersService </title>
<polygon fill="#fb8072" stroke="black" points="410.85,-252 317.15,-252 317.15,-216 410.85,-216 410.85,-252"/>
<text text-anchor="middle" x="364" y="-229.8" font-family="Times,serif" font-size="14.00">UsersService </text>
</g>
<!-- UsersModule -->
<g id="node2" class="node">
<title>UsersModule</title>
<polygon fill="#8dd3c7" stroke="black" points="409.92,-187 406.92,-191 385.92,-191 382.92,-187 318.08,-187 318.08,-151 409.92,-151 409.92,-187"/>
<text text-anchor="middle" x="364" y="-164.8" font-family="Times,serif" font-size="14.00">UsersModule</text>
</g>
<!-- UsersModule&#45;&gt;UsersService  -->
<g id="edge1" class="edge">
<title>UsersModule&#45;&gt;UsersService </title>
<path fill="none" stroke="black" stroke-dasharray="5,2" d="M364,-187.11C364,-187.11 364,-205.99 364,-205.99"/>
<polygon fill="black" stroke="black" points="360.5,-205.99 364,-215.99 367.5,-205.99 360.5,-205.99"/>
</g>
<!-- CreateUserProvider -->
<g id="node3" class="node">
<title>CreateUserProvider</title>
<ellipse fill="#fdb462" stroke="black" cx="692" cy="-104" rx="87.94" ry="18"/>
<text text-anchor="middle" x="692" y="-99.8" font-family="Times,serif" font-size="14.00">CreateUserProvider</text>
</g>
<!-- CreateUserProvider&#45;&gt;UsersModule -->
<g id="edge2" class="edge">
<title>CreateUserProvider&#45;&gt;UsersModule</title>
<path fill="none" stroke="black" d="M692,-122.11C692,-141.34 692,-169 692,-169 692,-169 419.95,-169 419.95,-169"/>
<polygon fill="black" stroke="black" points="419.95,-165.5 409.95,-169 419.95,-172.5 419.95,-165.5"/>
</g>
<!-- FindOneByEmailProvider -->
<g id="node4" class="node">
<title>FindOneByEmailProvider</title>
<ellipse fill="#fdb462" stroke="black" cx="474" cy="-104" rx="112.34" ry="18"/>
<text text-anchor="middle" x="474" y="-99.8" font-family="Times,serif" font-size="14.00">FindOneByEmailProvider</text>
</g>
<!-- FindOneByEmailProvider&#45;&gt;UsersModule -->
<g id="edge3" class="edge">
<title>FindOneByEmailProvider&#45;&gt;UsersModule</title>
<path fill="none" stroke="black" d="M385.65,-115.32C385.65,-115.32 385.65,-140.94 385.65,-140.94"/>
<polygon fill="black" stroke="black" points="382.15,-140.94 385.65,-150.94 389.15,-140.94 382.15,-140.94"/>
</g>
<!-- ManyUsersProvider -->
<g id="node5" class="node">
<title>ManyUsersProvider</title>
<ellipse fill="#fdb462" stroke="black" cx="255" cy="-104" rx="88.6" ry="18"/>
<text text-anchor="middle" x="255" y="-99.8" font-family="Times,serif" font-size="14.00">ManyUsersProvider</text>
</g>
<!-- ManyUsersProvider&#45;&gt;UsersModule -->
<g id="edge4" class="edge">
<title>ManyUsersProvider&#45;&gt;UsersModule</title>
<path fill="none" stroke="black" d="M331.05,-113.31C331.05,-113.31 331.05,-140.85 331.05,-140.85"/>
<polygon fill="black" stroke="black" points="327.55,-140.85 331.05,-150.85 334.55,-140.85 327.55,-140.85"/>
</g>
<!-- UsersService -->
<g id="node6" class="node">
<title>UsersService</title>
<ellipse fill="#fdb462" stroke="black" cx="86" cy="-104" rx="61.95" ry="18"/>
<text text-anchor="middle" x="86" y="-99.8" font-family="Times,serif" font-size="14.00">UsersService</text>
</g>
<!-- UsersService&#45;&gt;UsersModule -->
<g id="edge5" class="edge">
<title>UsersService&#45;&gt;UsersModule</title>
<path fill="none" stroke="black" d="M86,-122.11C86,-141.34 86,-169 86,-169 86,-169 308.09,-169 308.09,-169"/>
<polygon fill="black" stroke="black" points="308.09,-172.5 318.09,-169 308.09,-165.5 308.09,-172.5"/>
</g>
</g>
</svg>
